<?xml version="1.0" encoding="UTF-8"?>
<!DOCTYPE svg PUBLIC "-//W3C//DTD SVG 1.1//EN" "http://www.w3.org/Graphics/SVG/1.1/DTD/svg11.dtd">
<!-- Creator: CorelDRAW -->
<svg xmlns="http://www.w3.org/2000/svg" xml:space="preserve" width="2000px" height="400px" version="1.1" style="shape-rendering:geometricPrecision; text-rendering:geometricPrecision; image-rendering:optimizeQuality; fill-rule:evenodd; clip-rule:evenodd"
viewBox="0 0 2175.15 435.03"
 xmlns:xlink="http://www.w3.org/1999/xlink"
 xmlns:xodm="http://www.corel.com/coreldraw/odm/2003">
 <defs>
  <style type="text/css">
   <![CDATA[
    .fil0 {fill:white;fill-opacity:0.121569}
    .fil1 {fill:white;fill-opacity:0.200000}
    .fil2 {fill:white;fill-opacity:0.301961}
    .fil3 {fill:white;fill-opacity:0.400000}
   ]]>
  </style>
 </defs>
 <g id="Layer_x0020_1">
  <metadata id="CorelCorpID_0Corel-Layer"/>
  <path class="fil0" d="M2172.96 188.68l0 89.78c0,0.5 0.07,0.99 0.2,1.47 1.3,4.77 1.99,9.77 1.99,14.92 0,5.4 -0.76,10.64 -2.19,15.63 -7.52,26.31 -33.59,45.71 -64.58,45.71 -12.25,0 -23.72,-3.03 -33.59,-8.31 -2.27,-1.22 -5.08,-0.67 -6.77,1.28 -20.04,23.27 -51.04,38.2 -85.84,38.2 -42.35,0 -79.06,-22.09 -97.26,-54.42 -1.63,-2.9 -5.44,-3.62 -8.09,-1.61 -8.88,6.71 -20.25,10.74 -32.64,10.74 -21.13,0 -39.28,-11.72 -47.18,-28.46 -0.9,-1.92 -2.85,-3.13 -4.97,-3.13l-1.6 0c-1.16,0 -2.29,0.37 -3.23,1.05 -8.73,6.29 -19.73,10.05 -31.69,10.05 -6.19,0 -12.12,-1.01 -17.61,-2.85 -2.98,-1 -6.21,0.7 -7.05,3.72 -10.4,37.32 -47.25,64.91 -91.11,64.91 -18.61,0 -35.95,-4.96 -50.55,-13.53 -2.26,-1.32 -5.13,-0.9 -6.9,1.03 -22.97,25.15 -57.42,41.13 -95.95,41.13 -54.34,0 -100.6,-31.8 -117.92,-76.26 -1.33,-3.41 -5.56,-4.54 -8.48,-2.33 -8.89,6.74 -20.28,10.78 -32.69,10.78 -7.24,0 -14.13,-1.37 -20.38,-3.85 -2.41,-0.96 -5.17,-0.14 -6.61,2 -16.57,24.62 -46.22,41.03 -80.04,41.03 -15.71,0 -30.51,-3.54 -43.53,-9.79 -2.88,-1.39 -6.3,0.01 -7.48,2.96 -0.02,0.06 -0.05,0.13 -0.07,0.2 -11.23,31.53 -43.5,54.3 -81.57,54.3 -38.07,0 -70.35,-22.77 -81.58,-54.3 -0.02,-0.07 -0.04,-0.14 -0.07,-0.2 -1.17,-2.95 -4.59,-4.35 -7.48,-2.96 -13.02,6.25 -27.82,9.79 -43.52,9.79 -33.82,0 -63.47,-16.41 -80.04,-41.03 -1.45,-2.14 -4.21,-2.96 -6.61,-2 -6.25,2.48 -13.14,3.85 -20.38,3.85 -12.42,0 -23.81,-4.04 -32.69,-10.78 -2.92,-2.21 -7.16,-1.08 -8.49,2.33 -17.32,44.46 -63.57,76.26 -117.92,76.26 -38.52,0 -72.97,-15.98 -95.94,-41.13 -1.77,-1.93 -4.64,-2.35 -6.91,-1.03 -14.6,8.57 -31.94,13.53 -50.54,13.53 -43.87,0 -80.72,-27.59 -91.11,-64.91 -0.85,-3.02 -4.08,-4.72 -7.05,-3.72 -5.5,1.84 -11.43,2.85 -17.62,2.85 -11.95,0 -22.95,-3.76 -31.68,-10.05 -0.95,-0.68 -2.08,-1.05 -3.24,-1.05l-1.6 0c-2.12,0 -4.06,1.21 -4.97,3.13 -7.9,16.74 -26.05,28.46 -47.18,28.46 -12.39,0 -23.75,-4.03 -32.63,-10.74 -2.65,-2.01 -6.47,-1.29 -8.1,1.61 -18.19,32.33 -54.91,54.42 -97.25,54.42 -34.8,0 -65.81,-14.93 -85.85,-38.2 -1.68,-1.95 -4.49,-2.5 -6.76,-1.28 -9.87,5.28 -21.35,8.31 -33.59,8.31 -31,0 -57.06,-19.4 -64.59,-45.71 -1.43,-4.99 -2.19,-10.23 -2.19,-15.63 0,-5.15 0.69,-10.15 1.99,-14.92 0.13,-0.48 0.2,-0.97 0.2,-1.47l0 -77.49c5.09,24.82 28.81,43.6 57.31,43.6 6.24,0 12.24,-0.91 17.87,-2.57 0.76,-0.22 1.57,0.03 2.09,0.62 16.34,18.45 41.25,30.24 69.17,30.24 28.51,0 53.9,-12.31 70.21,-31.45 0.54,-0.63 1.43,-0.87 2.21,-0.58 6.64,2.41 13.87,3.74 21.44,3.74 15.05,0 28.77,-5.24 39.12,-13.84 1.01,-0.84 2.54,-0.49 3.11,0.7 16.91,35.09 55.14,59.58 99.61,59.58 40.59,0 75.99,-20.41 94.71,-50.67 0.53,-0.85 1.6,-1.18 2.52,-0.79 7.49,3.22 15.85,5.02 24.66,5.02 27.91,0 51.25,-18.02 56.98,-42.09 0.33,-1.42 1.99,-2.05 3.17,-1.19 15.26,11.25 34.64,17.99 55.74,17.99 23.41,0 44.71,-8.3 60.61,-21.86 1,-0.85 2.53,-0.56 3.13,0.61 14.36,27.52 44.97,46.54 80.41,46.54 6.88,0 13.56,-0.72 19.98,-2.08 0.96,-0.2 1.93,0.32 2.29,1.23 18.62,46.79 67.5,80.18 124.87,80.18 46.37,0 87.2,-21.81 110.98,-54.88 0.59,-0.82 1.7,-1.07 2.6,-0.59 19.56,10.41 42.28,16.37 66.51,16.37 40.24,0 76.31,-16.44 100.68,-42.4 13.43,-0.85 25.61,-5.89 35.01,-13.7 1.02,-0.84 2.55,-0.49 3.12,0.69 16.91,35.1 55.14,59.59 99.6,59.59 40.59,0 76,-20.41 94.72,-50.67 0.53,-0.85 1.6,-1.18 2.52,-0.79 7.49,3.22 15.84,5.02 24.65,5.02 27.92,0 51.25,-18.02 56.98,-42.09 0.34,-1.42 2,-2.05 3.17,-1.19 15.27,11.25 34.65,17.99 55.74,17.99 23.41,0 44.71,-8.3 60.62,-21.86 1,-0.85 2.52,-0.56 3.13,0.61 14.36,27.52 44.96,46.54 80.41,46.54 6.87,0 13.55,-0.72 19.98,-2.08 0.96,-0.2 1.92,0.32 2.29,1.23 18.61,46.79 67.5,80.18 124.87,80.18 46.37,0 87.19,-21.81 110.97,-54.88 0.6,-0.82 1.71,-1.07 2.61,-0.59 19.56,10.41 42.27,16.37 66.51,16.37 62.21,0 114.44,-39.28 128.92,-92.31 0.24,-0.89 1.04,-1.51 1.96,-1.51 0.37,0 0.71,-0.1 1.01,-0.27z"/>
  <path class="fil1" d="M2173.98 78.99l0 51.79c-0.05,-2.63 -0.21,-5.28 -0.49,-7.95l0.48 0 0 -43.84 0.01 0zm-2171.79 0l0 43.84 0.49 0c-6.06,57.89 43.71,107.62 106.51,107.62 52.92,0 96.86,-35.31 105.46,-81.69 0.22,-1.2 1.71,-1.64 2.55,-0.76 29.83,31.24 81.31,34.4 115.34,7.49 0.82,-0.65 2.04,-0.26 2.35,0.74 11.47,38.32 49.67,66.47 95.02,66.47 46.33,0 85.19,-29.37 95.73,-68.94 0.83,-3.09 4.8,1.53 17.31,1.53 21.22,0 38.88,-13.98 42.67,-32.46 0.16,-1.11 1.65,-1.73 2.55,-0.79 21.47,22.43 56.75,28.21 85.19,14.43 0.88,-0.43 1.93,0.1 2.11,1.06 4.71,24.87 28.3,43.77 56.72,43.77 16.67,0 31.67,-6.5 42.18,-16.9 0.82,-0.81 2.2,-0.45 2.5,0.65 4.76,17.55 22.02,30.56 42.59,30.56 24.25,0 43.88,-17.89 43.88,-40.68 14.75,14.51 34.02,23.19 54.15,25.65 12.53,16.24 33.16,26.84 56.47,26.84 10.36,0 20.19,-2.1 29.01,-5.85 15.99,13.14 37.1,21.13 60.24,21.13 8.63,0 16.97,-1.11 24.87,-3.19 7.91,2.08 16.25,3.19 24.88,3.19 23.14,0 44.25,-7.99 60.24,-21.13 8.82,3.75 18.64,5.85 29,5.85 23.32,0 43.94,-10.6 56.48,-26.84 20.13,-2.46 39.39,-11.14 54.15,-25.65 0,22.79 19.63,40.68 43.88,40.68 20.57,0 37.83,-13.01 42.58,-30.56 0.3,-1.1 1.69,-1.46 2.5,-0.65 10.52,10.4 25.52,16.9 42.18,16.9 28.42,0 52.02,-18.9 56.72,-43.77 0.19,-0.96 1.23,-1.49 2.11,-1.06 28.44,13.78 63.73,8 85.2,-14.43 0.89,-0.94 2.38,-0.32 2.55,0.79 3.79,18.48 21.45,32.46 42.67,32.46 12.51,0 16.48,-4.62 17.3,-1.53 10.55,39.57 49.41,68.94 95.73,68.94 45.36,0 83.55,-28.15 95.03,-66.47 0.3,-1 1.53,-1.39 2.35,-0.74 34.03,26.91 85.51,23.75 115.34,-7.49 0.84,-0.88 2.33,-0.44 2.55,0.76 8.6,46.38 52.54,81.69 105.46,81.69 58.77,0 106.13,-43.55 107,-96.6l0 53.07c0,1.12 -0.91,2.03 -2.03,2.03 -0.92,0 -1.72,0.62 -1.96,1.51 -14.48,53.03 -66.71,92.31 -128.92,92.31 -24.24,0 -46.95,-5.96 -66.51,-16.37 -0.9,-0.48 -2.01,-0.23 -2.61,0.59 -23.78,33.07 -64.6,54.88 -110.97,54.88 -57.37,0 -106.26,-33.39 -124.87,-80.18 -0.37,-0.91 -1.33,-1.43 -2.29,-1.23 -6.43,1.36 -13.11,2.08 -19.98,2.08 -35.45,0 -66.05,-19.02 -80.41,-46.54 -0.61,-1.17 -2.13,-1.46 -3.13,-0.61 -15.91,13.56 -37.21,21.86 -60.62,21.86 -21.09,0 -40.47,-6.74 -55.74,-17.99 -1.17,-0.86 -2.83,-0.23 -3.17,1.19 -5.73,24.07 -29.06,42.09 -56.98,42.09 -8.81,0 -17.16,-1.8 -24.65,-5.02 -0.92,-0.39 -1.99,-0.06 -2.52,0.79 -18.72,30.26 -54.13,50.67 -94.72,50.67 -44.46,0 -82.69,-24.49 -99.6,-59.59 -0.57,-1.18 -2.1,-1.53 -3.12,-0.69 -9.4,7.81 -21.58,12.85 -35.01,13.7 -24.37,25.96 -60.44,42.4 -100.68,42.4 -24.23,0 -46.95,-5.96 -66.51,-16.37 -0.9,-0.48 -2.01,-0.23 -2.6,0.59 -23.78,33.07 -64.61,54.88 -110.98,54.88 -57.37,0 -106.25,-33.39 -124.87,-80.18 -0.36,-0.91 -1.33,-1.43 -2.29,-1.23 -6.42,1.36 -13.1,2.08 -19.98,2.08 -35.44,0 -66.05,-19.02 -80.41,-46.54 -0.6,-1.17 -2.13,-1.46 -3.13,-0.61 -15.9,13.56 -37.2,21.86 -60.61,21.86 -21.1,0 -40.48,-6.74 -55.74,-17.99 -1.18,-0.86 -2.84,-0.23 -3.17,1.19 -5.73,24.07 -29.07,42.09 -56.98,42.09 -8.81,0 -17.17,-1.8 -24.66,-5.02 -0.92,-0.39 -1.99,-0.06 -2.52,0.79 -18.72,30.26 -54.12,50.67 -94.71,50.67 -44.47,0 -82.7,-24.49 -99.61,-59.58 -0.57,-1.19 -2.1,-1.54 -3.11,-0.7 -10.35,8.6 -24.07,13.84 -39.12,13.84 -7.57,0 -14.8,-1.33 -21.44,-3.74 -0.78,-0.29 -1.67,-0.05 -2.21,0.58 -16.31,19.14 -41.7,31.45 -70.21,31.45 -27.92,0 -52.83,-11.79 -69.17,-30.24 -0.52,-0.59 -1.33,-0.84 -2.09,-0.62 -5.63,1.66 -11.63,2.57 -17.87,2.57 -32.21,0 -58.32,-23.99 -58.32,-53.59l0 -111.99 1.01 0z"/>
  <path class="fil2" d="M2173.97 116.41l0 6.42 -0.48 0c6.06,57.89 -43.71,107.62 -106.51,107.62 -52.92,0 -96.86,-35.31 -105.46,-81.69 -0.22,-1.2 -1.71,-1.64 -2.55,-0.76 -29.83,31.24 -81.31,34.4 -115.34,7.49 -0.82,-0.65 -2.05,-0.26 -2.35,0.74 -11.48,38.32 -49.67,66.47 -95.03,66.47 -46.32,0 -85.18,-29.37 -95.73,-68.94 -0.82,-3.09 -4.79,1.53 -17.3,1.53 -21.22,0 -38.88,-13.98 -42.67,-32.46 -0.17,-1.11 -1.66,-1.73 -2.55,-0.79 -21.47,22.43 -56.76,28.21 -85.2,14.43 -0.88,-0.43 -1.92,0.1 -2.11,1.06 -4.7,24.87 -28.3,43.77 -56.72,43.77 -16.66,0 -31.66,-6.5 -42.18,-16.9 -0.81,-0.81 -2.2,-0.45 -2.5,0.65 -4.75,17.55 -22.01,30.56 -42.58,30.56 -24.25,0 -43.88,-17.89 -43.88,-40.68 -14.76,14.51 -34.02,23.19 -54.15,25.65 -12.54,16.24 -33.16,26.84 -56.48,26.84 -10.36,0 -20.18,-2.1 -29,-5.85 -15.99,13.14 -37.1,21.13 -60.24,21.13 -8.63,0 -16.97,-1.11 -24.88,-3.19 -7.9,2.08 -16.24,3.19 -24.87,3.19 -23.14,0 -44.25,-7.99 -60.24,-21.13 -8.82,3.75 -18.65,5.85 -29.01,5.85 -23.31,0 -43.94,-10.6 -56.47,-26.84 -20.13,-2.46 -39.4,-11.14 -54.15,-25.65 0,22.79 -19.63,40.68 -43.88,40.68 -20.57,0 -37.83,-13.01 -42.59,-30.56 -0.3,-1.1 -1.68,-1.46 -2.5,-0.65 -10.51,10.4 -25.51,16.9 -42.18,16.9 -28.42,0 -52.01,-18.9 -56.72,-43.77 -0.18,-0.96 -1.23,-1.49 -2.11,-1.06 -28.44,13.78 -63.72,8 -85.19,-14.43 -0.9,-0.94 -2.39,-0.32 -2.55,0.79 -3.79,18.48 -21.45,32.46 -42.67,32.46 -12.51,0 -16.48,-4.62 -17.31,-1.53 -10.54,39.57 -49.4,68.94 -95.73,68.94 -45.35,0 -83.55,-28.15 -95.02,-66.47 -0.31,-1 -1.53,-1.39 -2.35,-0.74 -34.03,26.91 -85.51,23.75 -115.34,-7.49 -0.84,-0.88 -2.33,-0.44 -2.55,0.76 -8.6,46.38 -52.54,81.69 -105.46,81.69 -62.8,0 -112.57,-49.73 -106.51,-107.62l-0.49 0 0 -100.4c8.61,24.46 70.15,11.19 90.76,4.56 19.13,-6.15 40.05,-0.65 53.89,13.93 13.09,13.79 29.59,24.79 48.29,31.88 11.46,20.41 34.64,34.36 61.36,34.36 7.98,0 15.65,-1.24 22.78,-3.53 19.13,-6.15 40.05,-0.65 53.89,13.92 23.75,25.02 58.7,40.83 97.67,40.83 45.63,0 85.74,-21.66 108.82,-54.4 10.66,-15.13 28.28,-24.04 46.74,-22.69 1.21,0.09 2.44,0.14 3.68,0.14 4.24,0 8.35,-0.53 12.26,-1.53 13.72,-3.49 28.18,-1.21 40.2,6.27 9.82,6.11 21.67,9.67 34.42,9.67 7,0 13.73,-1.07 19.99,-3.05 15.98,-5.05 33.46,-2.57 46.96,7.34 16.68,12.25 37.83,19.57 60.84,19.57 10.18,0 19.99,-1.43 29.2,-4.09 19.73,-5.67 40.86,0.82 54.25,16.37 29.78,34.56 75.85,56.74 127.56,56.74 55.59,0 104.67,-25.64 133.99,-64.75 10.06,-13.43 25.81,-21.47 42.59,-21.24 0.35,0.01 0.7,0.01 1.06,0.01 16.51,0 31.66,-5.33 43.53,-14.21 12.58,-9.41 28.77,-12.29 44.02,-8.53 3.79,0.93 7.77,1.43 11.88,1.43 1.84,0 3.65,-0.1 5.42,-0.3 17.92,-1.94 35.65,5.2 46.85,19.31 20.55,25.92 53.84,42.77 91.42,42.77 40.14,0 75.38,-19.21 95.44,-48.17 11.95,9.1 27.29,14.57 44.02,14.57 7.99,0 15.65,-1.24 22.78,-3.53 19.14,-6.15 40.06,-0.65 53.89,13.92 23.75,25.02 58.71,40.83 97.68,40.83 45.62,0 85.73,-21.66 108.81,-54.4 10.67,-15.13 28.29,-24.04 46.75,-22.69 1.21,0.09 2.44,0.14 3.68,0.14 4.24,0 8.35,-0.53 12.25,-1.53 13.72,-3.49 28.19,-1.21 40.21,6.27 9.82,6.11 21.66,9.67 34.42,9.67 7,0 13.72,-1.07 19.99,-3.05 15.97,-5.05 33.46,-2.57 46.96,7.34 16.68,12.25 37.83,19.57 60.84,19.57 10.18,0 19.98,-1.43 29.2,-4.09 6.8,-1.95 13.78,-2.46 20.54,-1.65z"/>
  <path class="fil3" d="M2174.66 116.49c-6.98,-0.93 -14.2,-0.45 -21.23,1.57 -9.22,2.66 -19.02,4.09 -29.2,4.09 -23.01,0 -44.16,-7.32 -60.84,-19.57 -13.5,-9.91 -30.99,-12.39 -46.96,-7.34 -6.27,1.98 -12.99,3.05 -19.99,3.05 -12.76,0 -24.6,-3.56 -34.42,-9.67 -12.02,-7.48 -26.49,-9.76 -40.21,-6.27 -3.9,1 -8.01,1.53 -12.25,1.53 -1.24,0 -2.47,-0.05 -3.68,-0.14 -18.46,-1.35 -36.08,7.56 -46.75,22.69 -23.08,32.74 -63.19,54.4 -108.81,54.4 -38.97,0 -73.93,-15.81 -97.68,-40.83 -13.83,-14.57 -34.75,-20.07 -53.89,-13.92 -7.13,2.29 -14.79,3.53 -22.78,3.53 -16.73,0 -32.07,-5.47 -44.02,-14.57 -20.06,28.96 -55.3,48.17 -95.44,48.17 -37.58,0 -70.87,-16.85 -91.42,-42.77 -11.2,-14.11 -28.93,-21.25 -46.85,-19.31 -1.77,0.2 -3.58,0.3 -5.42,0.3 -4.11,0 -8.09,-0.5 -11.88,-1.43 -15.25,-3.76 -31.44,-0.88 -44.02,8.53 -11.87,8.88 -27.02,14.21 -43.53,14.21 -0.36,0 -0.71,0 -1.06,-0.01 -16.78,-0.23 -32.53,7.81 -42.59,21.24 -29.32,39.11 -78.4,64.75 -133.99,64.75 -51.71,0 -97.78,-22.18 -127.56,-56.74 -13.39,-15.55 -34.52,-22.04 -54.25,-16.37 -9.21,2.66 -19.02,4.09 -29.2,4.09 -23.01,0 -44.16,-7.32 -60.84,-19.57 -13.5,-9.91 -30.98,-12.39 -46.96,-7.34 -6.26,1.98 -12.99,3.05 -19.99,3.05 -12.75,0 -24.6,-3.56 -34.42,-9.67 -12.02,-7.48 -26.48,-9.76 -40.2,-6.27 -3.91,1 -8.02,1.53 -12.26,1.53 -1.24,0 -2.47,-0.05 -3.68,-0.14 -18.46,-1.35 -36.08,7.56 -46.74,22.69 -23.08,32.74 -63.19,54.4 -108.82,54.4 -38.97,0 -73.92,-15.81 -97.67,-40.83 -13.84,-14.57 -34.76,-20.07 -53.89,-13.92 -7.13,2.29 -14.8,3.53 -22.78,3.53 -26.72,0 -49.9,-13.95 -61.36,-34.36 -18.7,-7.09 -35.2,-18.09 -48.29,-31.88 -13.84,-14.58 -34.76,-20.08 -53.89,-13.93 -22.18,7.13 -91.77,21.97 -91.77,-10.81l0 -16.18 2173.48 0 0 116.49z"/>
 </g>
</svg>
